<?xml version="1.0" encoding="utf-8"?>
<!-- Generator: Adobe Illustrator 26.0.1, SVG Export Plug-In . SVG Version: 6.00 Build 0)  -->
<svg version="1.1" id="圖層_1" xmlns="http://www.w3.org/2000/svg" xmlns:xlink="http://www.w3.org/1999/xlink" x="0px" y="0px"
	 viewBox="0 0 42.6 40" style="enable-background:new 0 0 42.6 40;" xml:space="preserve">
<style type="text/css">
	.st0{fill-rule:evenodd;clip-rule:evenodd;fill:#6B00FF;}
	.st1{fill-rule:evenodd;clip-rule:evenodd;fill:#FFCC00;}
</style>
<path class="st0" d="M36.7,5c-0.4-1-1-1.9-1.8-2.6c-0.8-0.8-1.6-1.3-2.6-1.7c-1-0.4-2-0.6-3-0.6H13.2c-0.8,0-1.7,0.1-2.5,0.4
	c-1.6,0.5-3,1.6-4,3c-1,1.4-1.5,3.1-1.5,4.8v23.6c-0.1,0.7,0.2,1.4,0.6,1.9c0.5,0.5,1.1,0.9,1.8,0.9C8,34.6,8,34.7,8,34.9v2.4
	c0,0.4,0,0.7,0.2,1.1c0.1,0.3,0.3,0.6,0.6,0.9c0.3,0.3,0.6,0.5,0.9,0.6c0.3,0.1,0.6,0.2,1,0.2h2.7c0.3,0,0.7-0.1,1-0.2
	c0.3-0.1,0.7-0.3,0.9-0.6c0.3-0.3,0.5-0.6,0.6-0.9C16,38,16,37.6,16,37.2V35c0-0.3,0-0.4,0.3-0.4h10c0.3,0,0.3,0.1,0.3,0.3v2.2
	c0,0.4,0.1,0.7,0.2,1.1c0.1,0.3,0.3,0.6,0.6,0.9s0.6,0.5,0.9,0.6c0.3,0.1,0.6,0.2,1,0.2h2.6c0.3,0,0.6-0.1,1-0.2
	c0.3-0.1,0.6-0.3,0.9-0.6c0.3-0.3,0.5-0.6,0.6-0.9c0.1-0.3,0.2-0.7,0.2-1.1V35c0-0.2,0-0.4,0.3-0.4c0.7-0.1,1.3-0.4,1.8-0.9
	c0.5-0.5,0.7-1.2,0.7-1.9V8.1C37.3,7,37.1,5.9,36.7,5z M16,3c0-0.3,0.1-0.3,0.4-0.3h4.9l5,0c0.4,0,0.4,0.1,0.4,0.4V5
	c0,0.3,0,0.3-0.3,0.3H16.3C16,5.3,16,5.2,16,5V3z M13.1,30.4c-0.2,0.5-0.5,0.9-1,1.2c-0.4,0.3-1,0.5-1.5,0.5c-0.7,0-1.4-0.3-1.9-0.8
	C8.3,30.7,8,30,8,29.3c0-0.5,0.2-1,0.5-1.5c0.3-0.4,0.7-0.8,1.2-1c0.5-0.2,1-0.2,1.5-0.1c0.5,0.1,1,0.4,1.4,0.7
	c0.4,0.4,0.6,0.9,0.7,1.4C13.4,29.3,13.3,29.9,13.1,30.4z M34.2,30.8c-0.3,0.4-0.7,0.8-1.2,1c-0.5,0.2-1,0.3-1.6,0.2
	c-0.5-0.1-1-0.3-1.4-0.7c-0.4-0.4-0.6-0.8-0.7-1.4c-0.1-0.5,0-1.1,0.2-1.5c0.2-0.5,0.5-0.9,1-1.2c0.4-0.3,1-0.5,1.5-0.5
	c0.7,0,1.4,0.3,1.9,0.8c0.5,0.5,0.8,1.2,0.8,1.9C34.7,29.8,34.5,30.4,34.2,30.8z M34.7,23.6c0,0.3-0.1,0.4-0.4,0.4h-13L8.5,24
	c-0.3,0-0.5,0-0.5-0.4V8.4C8,8,8.1,8,8.4,8h25.9c0.4,0,0.4,0.1,0.4,0.4V23.6z"/>
<path class="st0" d="M0.8,10.8C0.4,11,0.2,11.3,0,11.6v6c0.1,0.3,0.4,0.6,0.7,0.8c0.3,0.2,0.7,0.2,1.1,0.2h0.5
	c0.4,0,0.4-0.1,0.4-0.4v-6.9c0-0.4,0-0.6-0.1-0.7c-0.1-0.1-0.3-0.1-0.7-0.1C1.6,10.6,1.1,10.6,0.8,10.8z"/>
<path class="st0" d="M42.6,17.2v-2.5V12c0-0.3-0.2-0.6-0.4-0.9c-0.2-0.2-0.5-0.4-0.9-0.4h-0.9c-0.3,0-0.4,0.1-0.4,0.4v6.4
	c0,0.1,0,0.3-0.1,0.4c-0.1,0.3-0.1,0.6,0.1,0.7c0.2,0.1,0.4,0.1,0.7,0c0.1,0,0.3,0,0.4,0c0.2,0,0.4,0,0.6-0.1
	c0.2-0.1,0.4-0.2,0.5-0.3c0.1-0.1,0.2-0.3,0.3-0.5C42.6,17.6,42.6,17.4,42.6,17.2z"/>
<path class="st1" d="M21.5,15.6c0,2.9-2.3,5.2-5.2,5.2c-2.9,0-5.2-2.3-5.2-5.2s2.3-5.2,5.2-5.2C19.2,10.4,21.5,12.7,21.5,15.6z
	 M31.6,15.6c0,1.7-1.4,3.1-3.1,3.1c-1.7,0-3.1-1.4-3.1-3.1s1.4-3.1,3.1-3.1C30.3,12.6,31.6,13.9,31.6,15.6z"/>
</svg>
